<mxfile host="app.diagrams.net" modified="2024-01-23T19:14:56.204Z" agent="Mozilla/5.0 (Windows NT 10.0; Win64; x64) AppleWebKit/537.36 (KHTML, like Gecko) Chrome/120.0.0.0 Safari/537.36" etag="Sb0vmvTvz57dgJWdEEsx" version="22.1.22" type="github">
  <diagram name="Page-1" id="Xj0fW8EBSC_FXJBFZ361">
    <mxGraphModel dx="1050" dy="557" grid="1" gridSize="10" guides="1" tooltips="1" connect="1" arrows="1" fold="1" page="1" pageScale="1" pageWidth="850" pageHeight="1100" math="0" shadow="0">
      <root>
        <mxCell id="0" />
        <mxCell id="1" parent="0" />
        <mxCell id="FdcL3fqsLwNPK-vaDl-x-1" value="&lt;p style=&quot;margin:0px;margin-top:4px;text-align:center;text-decoration:underline;&quot;&gt;&lt;b&gt;wt: Workflow Tasks&lt;/b&gt;&lt;/p&gt;&lt;hr&gt;&lt;p style=&quot;margin:0px;margin-left:8px;&quot;&gt;TaskID = T001&lt;br&gt;TaskDescription = Verify Documents&lt;br&gt;TaskStatus = Pending&lt;/p&gt;&lt;p style=&quot;margin:0px;margin-left:8px;&quot;&gt;TimeStamps = 24-01-26&amp;nbsp; 10:00&amp;nbsp; AM&lt;/p&gt;" style="verticalAlign=top;align=left;overflow=fill;fontSize=12;fontFamily=Helvetica;html=1;whiteSpace=wrap;" vertex="1" parent="1">
          <mxGeometry x="330" y="40" width="260" height="100" as="geometry" />
        </mxCell>
        <mxCell id="FdcL3fqsLwNPK-vaDl-x-2" value="&lt;p style=&quot;margin:0px;margin-top:4px;text-align:center;text-decoration:underline;&quot;&gt;&lt;b&gt;csi: Costumer ServiceTools/Interfaces&lt;/b&gt;&lt;/p&gt;&lt;hr&gt;&lt;p style=&quot;margin:0px;margin-left:8px;&quot;&gt;ToolID = C001&lt;br&gt;ToolName = Live Chat&lt;br&gt;Functionality = Real-time customer support&lt;/p&gt;" style="verticalAlign=top;align=left;overflow=fill;fontSize=12;fontFamily=Helvetica;html=1;whiteSpace=wrap;" vertex="1" parent="1">
          <mxGeometry x="540" y="240" width="260" height="90" as="geometry" />
        </mxCell>
        <mxCell id="FdcL3fqsLwNPK-vaDl-x-3" value="&lt;p style=&quot;margin:0px;margin-top:4px;text-align:center;text-decoration:underline;&quot;&gt;&lt;b&gt;n: Notification&lt;/b&gt;&lt;/p&gt;&lt;hr&gt;&lt;p style=&quot;margin:0px;margin-left:8px;&quot;&gt;NotificationID = N001&lt;br&gt;UserID = 123456&lt;br&gt;Message =&amp;nbsp;&lt;/p&gt;Your loan application has been approved!&lt;p style=&quot;margin:0px;margin-left:8px;&quot;&gt;NotificationT = Approval&lt;/p&gt;" style="verticalAlign=top;align=left;overflow=fill;fontSize=12;fontFamily=Helvetica;html=1;whiteSpace=wrap;" vertex="1" parent="1">
          <mxGeometry x="130" y="240" width="260" height="120" as="geometry" />
        </mxCell>
        <mxCell id="FdcL3fqsLwNPK-vaDl-x-4" value="" style="endArrow=none;startArrow=none;endFill=0;startFill=0;endSize=8;html=1;verticalAlign=bottom;labelBackgroundColor=none;strokeWidth=3;rounded=0;exitX=0.5;exitY=0;exitDx=0;exitDy=0;" edge="1" parent="1" source="FdcL3fqsLwNPK-vaDl-x-3" target="FdcL3fqsLwNPK-vaDl-x-1">
          <mxGeometry width="160" relative="1" as="geometry">
            <mxPoint x="150" y="140" as="sourcePoint" />
            <mxPoint x="310" y="140" as="targetPoint" />
          </mxGeometry>
        </mxCell>
        <mxCell id="FdcL3fqsLwNPK-vaDl-x-5" value="" style="endArrow=none;startArrow=none;endFill=0;startFill=0;endSize=8;html=1;verticalAlign=bottom;labelBackgroundColor=none;strokeWidth=3;rounded=0;exitX=0.75;exitY=1;exitDx=0;exitDy=0;entryX=0.528;entryY=-0.007;entryDx=0;entryDy=0;entryPerimeter=0;" edge="1" parent="1" source="FdcL3fqsLwNPK-vaDl-x-1" target="FdcL3fqsLwNPK-vaDl-x-2">
          <mxGeometry width="160" relative="1" as="geometry">
            <mxPoint x="600" y="220" as="sourcePoint" />
            <mxPoint x="760" y="220" as="targetPoint" />
          </mxGeometry>
        </mxCell>
      </root>
    </mxGraphModel>
  </diagram>
</mxfile>
